<svg width="21" height="20" viewBox="0 0 21 20" fill="none" xmlns="http://www.w3.org/2000/svg">
<path fill-rule="evenodd" clip-rule="evenodd" d="M9.70016 0.0645996L0.194899 4.38811C0.0757042 4.44233 0 4.556 0 4.68069V15.3193C0 15.444 0.0757456 15.5576 0.194899 15.6119L9.70016 19.9354C9.88959 20.0215 10.1104 20.0215 10.2998 19.9354L19.8051 15.6119C19.9243 15.5576 20 15.444 20 15.3193V4.68069C20 4.556 19.9242 4.44233 19.8051 4.38811L10.2998 0.0645996C10.1104 -0.0215332 9.88959 -0.0215332 9.70016 0.0645996Z" fill="white"/>
<path fill-rule="evenodd" clip-rule="evenodd" d="M1.05734 4.4375C1.0211 4.48949 1 4.5507 1 4.61535V15.2539C1 15.3786 1.07575 15.4923 1.1949 15.5465L10.7002 19.87C10.7949 19.9131 10.8974 19.9346 11 19.9346V8.95996L1.05734 4.4375Z" fill="white"/>
<path fill-rule="evenodd" clip-rule="evenodd" d="M20.9427 4.4375C20.9789 4.48949 21 4.5507 21 4.61535V15.2539C21 15.3786 20.9242 15.4923 20.8051 15.5465L11.2998 19.87C11.2051 19.9131 11.1026 19.9346 11 19.9346V8.95996L20.9427 4.4375Z" fill="white"/>
<path fill-rule="evenodd" clip-rule="evenodd" d="M3.87847 14.7194C3.82831 14.7194 3.7771 14.7089 3.72897 14.687L2.26145 14.0195C2.08972 13.9414 2.018 13.7473 2.10083 13.5858C2.18334 13.4243 2.39009 13.357 2.56115 13.4345L4.02868 14.102C4.2004 14.1801 4.27212 14.3743 4.18929 14.5357C4.13004 14.6518 4.00679 14.7194 3.87847 14.7194Z" fill="white"/>
<path fill-rule="evenodd" clip-rule="evenodd" d="M5.22907 13.8912C5.1789 13.8912 5.1277 13.8808 5.07957 13.8589L2.26334 12.578C2.09195 12.5 2.0199 12.3058 2.10273 12.1443C2.18523 11.9832 2.39232 11.9156 2.56305 11.993L5.37923 13.2739C5.55062 13.3519 5.62268 13.5461 5.53984 13.7076C5.48064 13.8236 5.35738 13.8912 5.22907 13.8912Z" fill="url(#paint0_linear_1_9438)"/>
<path fill-rule="evenodd" clip-rule="evenodd" d="M17.5726 5.96535L7.595 1.42383L4.96484 2.625L14.9648 7.17355L17.5726 5.96535Z" fill="#FF8087"/>
<path fill-rule="evenodd" clip-rule="evenodd" d="M14.9648 7.17301V10.6967C14.9648 10.8165 15.0977 10.8951 15.2122 10.843L17.3777 9.85805C17.4969 9.80383 17.5726 9.69015 17.5726 9.56547V5.96484L14.9648 7.17301Z" fill="#E6646E"/>
<defs>
<linearGradient id="paint0_linear_1_9438" x1="3.82129" y1="11.9609" x2="3.82129" y2="13.8912" gradientUnits="userSpaceOnUse">
<stop stop-color="#00D059"/>
<stop offset="1" stop-color="#2BC48C"/>
</linearGradient>
</defs>
</svg>
