<svg width="49" height="49" viewBox="0 0 49 49" fill="none" xmlns="http://www.w3.org/2000/svg">
<path style="mix-blend-mode:multiply" opacity="0.4" d="M48.9998 41.8542C48.9998 45.8005 38.0309 48.9996 24.4999 48.9996C10.9689 48.9996 0 45.8005 0 41.8542C0 37.9079 10.9689 34.7109 24.4999 34.7109C38.0309 34.7109 48.9998 37.9079 48.9998 41.8542Z" fill="url(#paint0_linear_1_10630)"/>
<path d="M45.6583 25.76C45.6583 37.8395 42.1934 43.7595 24.4996 43.7595C6.80574 43.7595 3.33984 37.8447 3.33984 25.76C3.33984 13.6754 12.8139 0 24.4996 0C36.1852 0 45.6583 13.6805 45.6583 25.76Z" fill="url(#paint1_linear_1_10630)"/>
<path style="mix-blend-mode:multiply" opacity="0.5" d="M24.4986 41.7342C7.46413 41.7342 3.62005 36.2513 3.35671 25.0645C3.34978 25.2979 3.33789 25.5323 3.33789 25.7636C3.33789 37.8431 6.80279 43.7631 24.4976 43.7631C42.1924 43.7631 45.6564 37.8483 45.6564 25.7636C45.6564 25.5323 45.6465 25.2979 45.6395 25.0645C45.3772 36.2513 41.5341 41.7342 24.4986 41.7342Z" fill="url(#paint2_linear_1_10630)"/>
<path d="M7.61523 25.8199C7.61523 26.478 7.86808 27.1092 8.31811 27.5746C8.76814 28.0399 9.3785 28.3013 10.0149 28.3013C10.6514 28.3013 11.2617 28.0399 11.7118 27.5746C12.1618 27.1092 12.4147 26.478 12.4147 25.8199C12.4147 24.4502 11.3405 20.5039 10.0149 20.5039C8.68937 20.5039 7.61523 24.4513 7.61523 25.8199Z" fill="#EDEEEF"/>
<path fill-rule="evenodd" clip-rule="evenodd" d="M16.6065 10.9546C16.794 10.9045 16.9553 10.7808 17.056 10.6098C17.1568 10.4388 17.1891 10.234 17.1462 10.0387C17.1033 9.84347 16.9885 9.67319 16.8262 9.564C16.6639 9.4548 16.4669 9.4153 16.2769 9.45387L13.002 10.2257C12.824 10.2679 12.6671 10.3763 12.5613 10.5304C12.4555 10.6844 12.4082 10.8733 12.4284 11.0611C12.4486 11.2489 12.5348 11.4224 12.6707 11.5487C12.8066 11.675 12.9827 11.7451 13.1654 11.7459C13.222 11.7458 13.2785 11.739 13.3337 11.7254L16.6065 10.9546Z" fill="#794A2C"/>
<path fill-rule="evenodd" clip-rule="evenodd" d="M32.3902 10.9546C32.2027 10.9045 32.0416 10.7808 31.9408 10.6098C31.84 10.4388 31.8076 10.234 31.8505 10.0387C31.8934 9.84347 32.0082 9.67319 32.1705 9.564C32.3328 9.4548 32.5299 9.4153 32.7199 9.45387L35.9967 10.2257C36.175 10.268 36.332 10.3766 36.4377 10.5308C36.5435 10.6851 36.5907 10.8742 36.5702 11.0621C36.5498 11.25 36.4632 11.4236 36.3269 11.5497C36.1907 11.6758 36.0143 11.7456 35.8314 11.7459C35.7754 11.7459 35.7196 11.7391 35.6651 11.7254L32.3902 10.9546Z" fill="#794A2C"/>
<path d="M35.8658 18.6466C35.6448 18.8751 35.3824 19.0564 35.0936 19.1801C34.8049 19.3038 34.4954 19.3674 34.1828 19.3674C33.8703 19.3674 33.5607 19.3038 33.272 19.1801C32.9832 19.0564 32.7208 18.8751 32.4998 18.6466C32.2788 18.418 32.1035 18.1467 31.9839 17.8481C31.8643 17.5495 31.8027 17.2295 31.8027 16.9063C31.8027 16.5831 31.8643 16.2631 31.9839 15.9645C32.1035 15.6659 32.2788 15.3946 32.4998 15.1661C33.4294 14.2048 34.067 15.1005 34.9956 16.0618C35.9242 17.023 36.7983 17.6864 35.8658 18.6466Z" fill="#794A2C"/>
<path d="M13.128 18.6466C13.5743 19.1081 14.1797 19.3674 14.8109 19.3674C15.4422 19.3674 16.0475 19.1081 16.4939 18.6466C16.9402 18.185 17.191 17.559 17.191 16.9063C17.191 16.2536 16.9402 15.6276 16.4939 15.1661C15.5643 14.2048 14.9268 15.1005 13.9982 16.0618C13.0696 17.023 12.1984 17.6864 13.128 18.6466Z" fill="#794A2C"/>
<path d="M7.61523 25.8199C7.61523 26.478 7.86808 27.1092 8.31811 27.5746C8.76814 28.0399 9.3785 28.3013 10.0149 28.3013C10.6514 28.3013 11.2617 28.0399 11.7118 27.5746C12.1618 27.1092 12.4147 26.478 12.4147 25.8199C12.4147 24.4502 11.3405 20.5039 10.0149 20.5039C8.68937 20.5039 7.61523 24.4513 7.61523 25.8199Z" fill="#EDEEEF"/>
<g filter="url(#filter0_d_1_10630)">
<path d="M27.2957 23.0772L24.6756 24.5948C24.5701 24.6561 24.4374 24.6561 24.3285 24.5948L21.7084 23.0772C21.5212 22.9683 21.4736 22.7131 21.6165 22.5532C21.7152 22.4409 21.8275 22.349 21.9466 22.2844L23.7909 21.2635C24.1856 21.0424 24.8253 21.0424 25.22 21.2635L27.0643 22.2844C27.1834 22.349 27.2957 22.4443 27.3944 22.5532C27.5305 22.7131 27.4829 22.9683 27.2957 23.0772Z" fill="#EDEEEF"/>
<path d="M24.3083 25.2283V27.549C24.3083 27.8076 24.0463 27.9777 23.8149 27.8654C23.1139 27.5217 21.9331 26.8786 21.9331 26.8786C21.518 26.6438 21.1777 26.0517 21.1777 25.5651V23.8093C21.1777 23.5405 21.4602 23.3704 21.6916 23.5031L24.1381 24.922C24.2402 24.9867 24.3083 25.1024 24.3083 25.2283Z" fill="#EDEEEF"/>
<path d="M24.6953 25.2283V27.549C24.6953 27.8076 24.9573 27.9777 25.1887 27.8654C25.8897 27.5217 27.0704 26.8786 27.0704 26.8786C27.4856 26.6438 27.8259 26.0517 27.8259 25.5651V23.8093C27.8259 23.5405 27.5434 23.3704 27.312 23.5031L24.8655 24.922C24.7634 24.9867 24.6953 25.1024 24.6953 25.2283Z" fill="#EDEEEF"/>
</g>
<defs>
<filter id="filter0_d_1_10630" x="16.418" y="20.416" width="16.166" height="16.166" filterUnits="userSpaceOnUse" color-interpolation-filters="sRGB">
<feFlood flood-opacity="0" result="BackgroundImageFix"/>
<feColorMatrix in="SourceAlpha" type="matrix" values="0 0 0 0 0 0 0 0 0 0 0 0 0 0 0 0 0 0 127 0" result="hardAlpha"/>
<feOffset dy="4"/>
<feGaussianBlur stdDeviation="2"/>
<feComposite in2="hardAlpha" operator="out"/>
<feColorMatrix type="matrix" values="0 0 0 0 0 0 0 0 0 0 0 0 0 0 0 0 0 0 0.25 0"/>
<feBlend mode="normal" in2="BackgroundImageFix" result="effect1_dropShadow_1_10630"/>
<feBlend mode="normal" in="SourceGraphic" in2="effect1_dropShadow_1_10630" result="shape"/>
</filter>
<linearGradient id="paint0_linear_1_10630" x1="24.4999" y1="34.7109" x2="24.4999" y2="48.9996" gradientUnits="userSpaceOnUse">
<stop stop-color="#242151" stop-opacity="0.537"/>
<stop offset="0.401" stop-color="#262353" stop-opacity="0.796"/>
<stop offset="1" stop-color="#2E2B5D" stop-opacity="0.447"/>
</linearGradient>
<linearGradient id="paint1_linear_1_10630" x1="3.33984" y1="21.8798" x2="45.6583" y2="21.8798" gradientUnits="userSpaceOnUse">
<stop stop-color="#8B21CA"/>
<stop offset="0.3" stop-color="#F0A613"/>
<stop offset="0.67" stop-color="#FA4E0A"/>
<stop offset="1" stop-color="#29206F"/>
</linearGradient>
<linearGradient id="paint2_linear_1_10630" x1="24.4971" y1="23.5125" x2="24.4971" y2="45.2777" gradientUnits="userSpaceOnUse">
<stop stop-color="#00D059"/>
<stop offset="0.25" stop-color="#C4FFBA"/>
<stop offset="0.6" stop-color="#2BC48C"/>
<stop offset="1" stop-color="#27AE60"/>
</linearGradient>
</defs>
</svg>
