<svg width="20" height="20" viewBox="0 0 20 20" fill="none" xmlns="http://www.w3.org/2000/svg">
<g clip-path="url(#clip0_353_14657)">
<path d="M15.2188 3.25546L12.5001 1.68983C12.3173 1.58434 12.1152 1.51694 11.9057 1.49169C11.6962 1.46645 11.4838 1.48389 11.2813 1.54296L6.87505 2.82733C6.56525 2.91707 6.30212 3.12309 6.14068 3.40233L0.606305 12.9992C0.399114 13.3581 0.342966 13.7846 0.450212 14.1848C0.557459 14.5851 0.819316 14.9264 1.17818 15.1336L9.25005 19.7898C9.60893 19.997 10.0354 20.0532 10.4357 19.9459C10.8359 19.8387 11.1772 19.5768 11.3844 19.218L16.9376 9.60233C17.0926 9.33621 17.1386 9.02035 17.0657 8.72108L15.9688 4.25546C15.9178 4.04676 15.8251 3.85056 15.6962 3.67869C15.5673 3.50683 15.4049 3.36285 15.2188 3.25546V3.25546Z" fill="white"/>
<path d="M7.06408 5.00342L2.40173 13.0756C2.18161 13.4567 2.31212 13.9441 2.69322 14.1642L9.32847 17.9966C9.70957 18.2167 10.197 18.0862 10.4171 17.7051L15.0794 9.63294C15.2995 9.25184 15.169 8.76445 14.7879 8.54434L8.15268 4.71193C7.77158 4.49181 7.2842 4.62231 7.06408 5.00342Z" fill="#2BC48C" fill-opacity="0.85"/>
<path d="M8.26585 10.1633L6.61482 9.21049C6.419 9.09747 6.16899 9.164 6.05641 9.35907C5.94383 9.55414 6.01131 9.8039 6.20713 9.91691L7.85816 10.8697C8.05398 10.9828 8.30399 10.9162 8.41657 10.7212C8.52915 10.5261 8.46167 10.2763 8.26585 10.1633Z" fill="white"/>
<path d="M10.5458 14.1053L5.47908 11.1812C5.28326 11.0682 5.03325 11.1347 4.92067 11.3298C4.80809 11.5248 4.87557 11.7746 5.07139 11.8876L10.1381 14.8117C10.334 14.9247 10.584 14.8582 10.6966 14.6631C10.8091 14.4681 10.7417 14.2183 10.5458 14.1053Z" fill="white"/>
<path d="M7.9497 14.7724L4.53938 12.8042C4.34356 12.6912 4.09355 12.7577 3.98097 12.9528C3.86839 13.1479 3.93587 13.3976 4.13169 13.5107L7.54201 15.4788C7.73783 15.5918 7.98784 15.5253 8.10042 15.3302C8.213 15.1352 8.14552 14.8854 7.9497 14.7724Z" fill="white"/>
<path d="M14.9531 1.43359H11.8093C11.5985 1.43357 11.3899 1.4762 11.1961 1.5589C11.0022 1.64161 10.8271 1.76268 10.6812 1.91484L7.49995 5.22734C7.277 5.46034 7.15271 5.77048 7.15308 6.09297V17.1867C7.15308 17.6011 7.3177 17.9985 7.61072 18.2916C7.90375 18.5846 8.30118 18.7492 8.71558 18.7492H18.0406C18.455 18.7492 18.8524 18.5846 19.1454 18.2916C19.4385 17.9985 19.6031 17.6011 19.6031 17.1867V6.09297C19.6034 5.77048 19.4792 5.46034 19.2562 5.22734L16.0812 1.91484C15.9353 1.76268 15.7602 1.64161 15.5663 1.5589C15.3725 1.4762 15.1639 1.43357 14.9531 1.43359Z" fill="#8643FF"/>
<path d="M18.0094 7.02823V16.3501C18.009 16.4547 17.9879 16.5583 17.9475 16.6548C17.9071 16.7513 17.8481 16.839 17.7738 16.9127C17.6995 16.9864 17.6114 17.0447 17.5146 17.0844C17.4177 17.1241 17.314 17.1443 17.2094 17.1438H9.55312C9.4481 17.1451 9.34388 17.1255 9.24649 17.0861C9.1491 17.0468 9.06049 16.9885 8.98579 16.9147C8.91109 16.8409 8.85178 16.753 8.8113 16.656C8.77083 16.5591 8.74999 16.4551 8.75 16.3501V7.02823C8.75163 6.9244 8.7737 6.8219 8.81494 6.7266C8.85618 6.6313 8.9158 6.54506 8.99038 6.4728C9.06496 6.40054 9.15304 6.34368 9.2496 6.30547C9.34616 6.26726 9.4493 6.24845 9.55312 6.2501H17.2094C17.4183 6.24841 17.6194 6.32916 17.7692 6.47483C17.919 6.6205 18.0053 6.81934 18.0094 7.02823V7.02823Z" fill="white"/>
<path d="M9.99385 8.39414C9.99385 8.05241 9.71682 7.77539 9.3751 7.77539C9.03337 7.77539 8.75635 8.05241 8.75635 8.39414V13.6879C8.75635 14.0296 9.03337 14.3066 9.3751 14.3066C9.71682 14.3066 9.99385 14.0296 9.99385 13.6879V8.39414Z" fill="white"/>
<path d="M9.99385 9.42734C9.99385 9.08562 9.71682 8.80859 9.3751 8.80859C9.03337 8.80859 8.75635 9.08562 8.75635 9.42734V12.1867C8.75635 12.5284 9.03337 12.8055 9.3751 12.8055C9.71682 12.8055 9.99385 12.5284 9.99385 12.1867V9.42734Z" fill="white"/>
<path d="M13.3812 4.12813C13.8351 4.12813 14.2031 3.76016 14.2031 3.30625C14.2031 2.85234 13.8351 2.48438 13.3812 2.48438C12.9273 2.48438 12.5593 2.85234 12.5593 3.30625C12.5593 3.76016 12.9273 4.12813 13.3812 4.12813Z" fill="white"/>
<path d="M13.897 0.515625C13.897 0.230853 13.6661 0 13.3813 0C13.0966 0 12.8657 0.230853 12.8657 0.515625V3.20312C12.8657 3.4879 13.0966 3.71875 13.3813 3.71875C13.6661 3.71875 13.897 3.4879 13.897 3.20312V0.515625Z" fill="white"/>
<path d="M19.6031 6.09297V17.1867C19.6031 17.6011 19.4385 17.9985 19.1455 18.2916C18.8525 18.5846 18.455 18.7492 18.0406 18.7492H12.8281C13.4254 18.2757 13.973 17.7428 14.4625 17.1586H17.2125C17.4238 17.1586 17.6265 17.0746 17.776 16.9252C17.9254 16.7758 18.0094 16.5731 18.0094 16.3617V7.03047C18.0061 6.82158 17.9206 6.62242 17.7714 6.47617C17.6222 6.32992 17.4214 6.24837 17.2125 6.24922H16.3812C15.838 4.76899 14.9858 3.4214 13.8812 2.29609V1.43359H14.9375C15.1483 1.43357 15.3569 1.4762 15.5508 1.5589C15.7446 1.64161 15.9198 1.76268 16.0656 1.91484L19.2406 5.22734C19.4693 5.45785 19.5993 5.7683 19.6031 6.09297V6.09297Z" fill="#8643FF"/>
<path d="M18.0093 7.03126V16.35C18.0093 16.5613 17.9253 16.764 17.7759 16.9135C17.6264 17.0629 17.4237 17.1469 17.2124 17.1469H14.4624C15.7062 15.6564 16.5378 13.8661 16.8744 11.9542C17.2111 10.0424 17.041 8.07569 16.3812 6.25001H17.2124C17.4213 6.24916 17.6221 6.3307 17.7713 6.47695C17.9205 6.62321 18.006 6.82237 18.0093 7.03126V7.03126Z" fill="white"/>
<path d="M13.3813 0.000151548C13.2446 0.000151548 13.1134 0.0544762 13.0167 0.151175C12.92 0.247873 12.8657 0.379024 12.8657 0.515777V1.34703L12.972 1.43453C13.3007 1.69829 13.6138 1.98106 13.9095 2.2814V0.515777C13.9095 0.446999 13.8958 0.378912 13.8691 0.315525C13.8424 0.252137 13.8033 0.19473 13.7541 0.146683C13.7048 0.0986358 13.6465 0.0609195 13.5825 0.0357544C13.5185 0.0105894 13.4501 -0.00151579 13.3813 0.000151548V0.000151548Z" fill="white"/>
<path d="M13.3813 13.9023C13.0498 13.9023 12.7319 13.7706 12.4975 13.5362C12.263 13.3018 12.1313 12.9839 12.1313 12.6523C12.1313 12.5695 12.1643 12.49 12.2229 12.4314C12.2815 12.3728 12.361 12.3398 12.4438 12.3398C12.5267 12.3398 12.6062 12.3728 12.6648 12.4314C12.7234 12.49 12.7563 12.5695 12.7563 12.6523C12.7563 12.776 12.793 12.8968 12.8617 12.9996C12.9304 13.1024 13.028 13.1825 13.1422 13.2298C13.2564 13.2771 13.382 13.2895 13.5033 13.2653C13.6245 13.2412 13.7359 13.1817 13.8233 13.0943C13.9107 13.0069 13.9702 12.8955 13.9943 12.7743C14.0185 12.653 14.0061 12.5274 13.9588 12.4132C13.9115 12.299 13.8314 12.2014 13.7286 12.1327C13.6258 12.064 13.505 12.0273 13.3813 12.0273C13.1341 12.0273 12.8924 11.954 12.6869 11.8167C12.4813 11.6793 12.3211 11.4841 12.2265 11.2557C12.1319 11.0273 12.1071 10.776 12.1554 10.5335C12.2036 10.291 12.3226 10.0683 12.4975 9.89346C12.6723 9.71865 12.895 9.59959 13.1375 9.55136C13.38 9.50313 13.6313 9.52789 13.8597 9.62249C14.0881 9.7171 14.2833 9.87732 14.4207 10.0829C14.558 10.2884 14.6313 10.5301 14.6313 10.7773C14.6313 10.8602 14.5984 10.9397 14.5398 10.9983C14.4812 11.0569 14.4017 11.0898 14.3188 11.0898C14.236 11.0898 14.1565 11.0569 14.0979 10.9983C14.0393 10.9397 14.0063 10.8602 14.0063 10.7773C14.0063 10.6537 13.9697 10.5329 13.901 10.4301C13.8323 10.3273 13.7347 10.2472 13.6205 10.1999C13.5063 10.1526 13.3807 10.1402 13.2594 10.1644C13.1382 10.1885 13.0268 10.248 12.9394 10.3354C12.852 10.4228 12.7925 10.5342 12.7684 10.6554C12.7442 10.7767 12.7566 10.9023 12.8039 11.0165C12.8512 11.1307 12.9313 11.2283 13.0341 11.297C13.1369 11.3657 13.2577 11.4023 13.3813 11.4023C13.7129 11.4023 14.0308 11.534 14.2652 11.7685C14.4997 12.0029 14.6313 12.3208 14.6313 12.6523C14.6313 12.9839 14.4997 13.3018 14.2652 13.5362C14.0308 13.7706 13.7129 13.9023 13.3813 13.9023Z" fill="white"/>
<path d="M13.3813 10.1465C13.2985 10.1465 13.219 10.1136 13.1604 10.055C13.1018 9.99635 13.0688 9.91686 13.0688 9.83398V9.20898C13.0688 9.1261 13.1018 9.04662 13.1604 8.98801C13.219 8.92941 13.2985 8.89648 13.3813 8.89648C13.4642 8.89648 13.5437 8.92941 13.6023 8.98801C13.6609 9.04662 13.6938 9.1261 13.6938 9.20898V9.83398C13.6938 9.91686 13.6609 9.99635 13.6023 10.055C13.5437 10.1136 13.4642 10.1465 13.3813 10.1465Z" fill="white"/>
<path d="M13.3813 14.4961C13.2985 14.4961 13.219 14.4632 13.1604 14.4046C13.1018 14.346 13.0688 14.2665 13.0688 14.1836V13.5898C13.0688 13.507 13.1018 13.4275 13.1604 13.3689C13.219 13.3103 13.2985 13.2773 13.3813 13.2773C13.4642 13.2773 13.5437 13.3103 13.6023 13.3689C13.6609 13.4275 13.6938 13.507 13.6938 13.5898V14.1836C13.6938 14.2665 13.6609 14.346 13.6023 14.4046C13.5437 14.4632 13.4642 14.4961 13.3813 14.4961Z" fill="white"/>
</g>
<defs>
<clipPath id="clip0_353_14657">
<rect width="20" height="20" fill="white"/>
</clipPath>
</defs>
</svg>
