<svg width="61" height="61" viewBox="0 0 61 61" fill="none" xmlns="http://www.w3.org/2000/svg">
<circle cx="30.5" cy="30.5" r="30.5" fill="#F0A613"/>
<path d="M24.2917 26.9167C23.8785 26.9167 23.5324 26.7767 23.2533 26.4967C22.9743 26.2167 22.8343 25.8706 22.8333 25.4583C22.8324 25.0461 22.9724 24.7 23.2533 24.42C23.5343 24.14 23.8804 24 24.2917 24H41.7917C42.2049 24 42.5515 24.14 42.8315 24.42C43.1115 24.7 43.251 25.0461 43.25 25.4583C43.249 25.8706 43.109 26.2172 42.83 26.4981C42.551 26.7791 42.2049 26.9186 41.7917 26.9167H24.2917ZM24.2917 32.75C23.8785 32.75 23.5324 32.61 23.2533 32.33C22.9743 32.05 22.8343 31.7039 22.8333 31.2917C22.8324 30.8794 22.9724 30.5333 23.2533 30.2533C23.5343 29.9733 23.8804 29.8333 24.2917 29.8333H41.7917C42.2049 29.8333 42.5515 29.9733 42.8315 30.2533C43.1115 30.5333 43.251 30.8794 43.25 31.2917C43.249 31.7039 43.109 32.0505 42.83 32.3315C42.551 32.6124 42.2049 32.7519 41.7917 32.75H24.2917ZM24.2917 38.5833C23.8785 38.5833 23.5324 38.4433 23.2533 38.1633C22.9743 37.8833 22.8343 37.5372 22.8333 37.125C22.8324 36.7128 22.9724 36.3667 23.2533 36.0867C23.5343 35.8067 23.8804 35.6667 24.2917 35.6667H41.7917C42.2049 35.6667 42.5515 35.8067 42.8315 36.0867C43.1115 36.3667 43.251 36.7128 43.25 37.125C43.249 37.5372 43.109 37.8838 42.83 38.1648C42.551 38.4458 42.2049 38.5853 41.7917 38.5833H24.2917ZM18.4583 26.9167C18.0451 26.9167 17.699 26.7767 17.42 26.4967C17.141 26.2167 17.001 25.8706 17 25.4583C16.999 25.0461 17.139 24.7 17.42 24.42C17.701 24.14 18.0471 24 18.4583 24C18.8696 24 19.2162 24.14 19.4981 24.42C19.7801 24.7 19.9196 25.0461 19.9167 25.4583C19.9138 25.8706 19.7738 26.2172 19.4967 26.4981C19.2196 26.7791 18.8735 26.9186 18.4583 26.9167ZM18.4583 32.75C18.0451 32.75 17.699 32.61 17.42 32.33C17.141 32.05 17.001 31.7039 17 31.2917C16.999 30.8794 17.139 30.5333 17.42 30.2533C17.701 29.9733 18.0471 29.8333 18.4583 29.8333C18.8696 29.8333 19.2162 29.9733 19.4981 30.2533C19.7801 30.5333 19.9196 30.8794 19.9167 31.2917C19.9138 31.7039 19.7738 32.0505 19.4967 32.3315C19.2196 32.6124 18.8735 32.7519 18.4583 32.75ZM18.4583 38.5833C18.0451 38.5833 17.699 38.4433 17.42 38.1633C17.141 37.8833 17.001 37.5372 17 37.125C16.999 36.7128 17.139 36.3667 17.42 36.0867C17.701 35.8067 18.0471 35.6667 18.4583 35.6667C18.8696 35.6667 19.2162 35.8067 19.4981 36.0867C19.7801 36.3667 19.9196 36.7128 19.9167 37.125C19.9138 37.5372 19.7738 37.8838 19.4967 38.1648C19.2196 38.4458 18.8735 38.5853 18.4583 38.5833Z" fill="#29206F"/>
</svg>
