<svg width="27" height="27" viewBox="0 0 27 27" fill="none" xmlns="http://www.w3.org/2000/svg">
<path d="M13.5 3.375H5.625C5.02826 3.375 4.45597 3.61205 4.03401 4.03401C3.61205 4.45597 3.375 5.02826 3.375 5.625V21.375C3.375 21.9717 3.61205 22.544 4.03401 22.966C4.45597 23.3879 5.02826 23.625 5.625 23.625H21.375C21.9717 23.625 22.544 23.3879 22.966 22.966C23.3879 22.544 23.625 21.9717 23.625 21.375V13.5" stroke="black" stroke-width="2" stroke-linecap="round" stroke-linejoin="round"/>
<path d="M20.6715 2.95289C21.119 2.50534 21.7261 2.25391 22.359 2.25391C22.9919 2.25391 23.5989 2.50534 24.0465 2.95289C24.494 3.40044 24.7455 4.00746 24.7455 4.64039C24.7455 5.27333 24.494 5.88034 24.0465 6.32789L13.9069 16.4686C13.6397 16.7355 13.3097 16.9309 12.9472 17.0368L9.71512 17.9818C9.61831 18.01 9.5157 18.0117 9.41801 17.9867C9.32033 17.9616 9.23117 17.9108 9.15987 17.8395C9.08857 17.7682 9.03774 17.6791 9.01272 17.5814C8.98769 17.4837 8.98938 17.3811 9.01762 17.2843L9.96262 14.0521C10.069 13.6899 10.2647 13.3603 10.5319 13.0936L20.6715 2.95289Z" stroke="black" stroke-width="2" stroke-linecap="round" stroke-linejoin="round"/>
</svg>
