<svg width="27" height="27" viewBox="0 0 27 27" fill="none" xmlns="http://www.w3.org/2000/svg">
<path d="M20.25 21.375C20.25 22.2701 19.8944 23.1286 19.2615 23.7615C18.6286 24.3944 17.7701 24.75 16.875 24.75H9C8.10489 24.75 7.24645 24.3944 6.61351 23.7615C5.98058 23.1286 5.625 22.2701 5.625 21.375V7.875H4.5V4.5H9.5625L10.6875 3.375H15.1875L16.3125 4.5H21.375V7.875H20.25V21.375ZM6.75 7.875V21.375C6.75 21.9717 6.98705 22.544 7.40901 22.966C7.83097 23.3879 8.40326 23.625 9 23.625H16.875C17.4717 23.625 18.044 23.3879 18.466 22.966C18.8879 22.544 19.125 21.9717 19.125 21.375V7.875H6.75ZM20.25 6.75V5.625H15.75L14.625 4.5H11.25L10.125 5.625H5.625V6.75H20.25ZM9 10.125H10.125V21.375H9V10.125ZM15.75 10.125H16.875V21.375H15.75V10.125Z" fill="black"/>
</svg>
