<svg width="43" height="44" viewBox="0 0 43 44" fill="none" xmlns="http://www.w3.org/2000/svg">
<path d="M42.6583 25.76C42.6583 37.8395 39.1934 43.7595 21.4996 43.7595C3.80574 43.7595 0.339844 37.8447 0.339844 25.76C0.339844 13.6754 9.8139 0 21.4996 0C33.1852 0 42.6583 13.6805 42.6583 25.76Z" fill="url(#paint0_linear_1_10632)"/>
<path style="mix-blend-mode:multiply" opacity="0.5" d="M21.4986 41.7342C4.46413 41.7342 0.620046 36.2513 0.356712 25.0645C0.349783 25.2979 0.337891 25.5323 0.337891 25.7636C0.337891 37.8431 3.80279 43.7631 21.4976 43.7631C39.1924 43.7631 42.6564 37.8483 42.6564 25.7636C42.6564 25.5323 42.6465 25.2979 42.6395 25.0645C42.3772 36.2513 38.5341 41.7342 21.4986 41.7342Z" fill="url(#paint1_linear_1_10632)"/>
<path d="M4.61523 25.8199C4.61523 26.478 4.86808 27.1092 5.31811 27.5746C5.76814 28.0399 6.3785 28.3013 7.01494 28.3013C7.65138 28.3013 8.26175 28.0399 8.71178 27.5746C9.16181 27.1092 9.41465 26.478 9.41465 25.8199C9.41465 24.4502 8.34052 20.5039 7.01494 20.5039C5.68937 20.5039 4.61523 24.4513 4.61523 25.8199Z" fill="#EDEEEF"/>
<path fill-rule="evenodd" clip-rule="evenodd" d="M13.6065 10.9546C13.794 10.9045 13.9553 10.7808 14.056 10.6098C14.1568 10.4388 14.1891 10.234 14.1462 10.0387C14.1033 9.84347 13.9885 9.67319 13.8262 9.564C13.6639 9.4548 13.4669 9.4153 13.2769 9.45387L10.002 10.2257C9.82395 10.2679 9.66706 10.3763 9.56128 10.5304C9.45551 10.6844 9.40821 10.8733 9.42838 11.0611C9.44856 11.2489 9.53481 11.4224 9.67071 11.5487C9.80661 11.675 9.98266 11.7451 10.1654 11.7459C10.222 11.7458 10.2785 11.739 10.3337 11.7254L13.6065 10.9546Z" fill="#794A2C"/>
<path fill-rule="evenodd" clip-rule="evenodd" d="M29.3902 10.9546C29.2027 10.9045 29.0416 10.7808 28.9408 10.6098C28.84 10.4388 28.8076 10.234 28.8505 10.0387C28.8934 9.84347 29.0082 9.67319 29.1705 9.564C29.3328 9.4548 29.5299 9.4153 29.7199 9.45387L32.9967 10.2257C33.175 10.268 33.332 10.3766 33.4377 10.5308C33.5435 10.6851 33.5907 10.8742 33.5702 11.0621C33.5498 11.25 33.4632 11.4236 33.3269 11.5497C33.1907 11.6758 33.0143 11.7456 32.8314 11.7459C32.7754 11.7459 32.7196 11.7391 32.6651 11.7254L29.3902 10.9546Z" fill="#794A2C"/>
<path d="M32.8658 18.6466C32.6448 18.8751 32.3824 19.0564 32.0936 19.1801C31.8049 19.3038 31.4954 19.3674 31.1828 19.3674C30.8703 19.3674 30.5607 19.3038 30.272 19.1801C29.9832 19.0564 29.7208 18.8751 29.4998 18.6466C29.2788 18.418 29.1035 18.1467 28.9839 17.8481C28.8643 17.5495 28.8027 17.2295 28.8027 16.9063C28.8027 16.5831 28.8643 16.2631 28.9839 15.9645C29.1035 15.6659 29.2788 15.3946 29.4998 15.1661C30.4294 14.2048 31.067 15.1005 31.9956 16.0618C32.9242 17.023 33.7983 17.6864 32.8658 18.6466Z" fill="#794A2C"/>
<path d="M10.128 18.6466C10.5743 19.1081 11.1797 19.3674 11.8109 19.3674C12.4422 19.3674 13.0475 19.1081 13.4939 18.6466C13.9402 18.185 14.191 17.559 14.191 16.9063C14.191 16.2536 13.9402 15.6276 13.4939 15.1661C12.5643 14.2048 11.9268 15.1005 10.9982 16.0618C10.0696 17.023 9.1984 17.6864 10.128 18.6466Z" fill="#794A2C"/>
<path d="M4.61523 25.8199C4.61523 26.478 4.86808 27.1092 5.31811 27.5746C5.76814 28.0399 6.3785 28.3013 7.01494 28.3013C7.65138 28.3013 8.26175 28.0399 8.71178 27.5746C9.16181 27.1092 9.41465 26.478 9.41465 25.8199C9.41465 24.4502 8.34052 20.5039 7.01494 20.5039C5.68937 20.5039 4.61523 24.4513 4.61523 25.8199Z" fill="#EDEEEF"/>
<defs>
<linearGradient id="paint0_linear_1_10632" x1="0.339844" y1="21.8798" x2="42.6583" y2="21.8798" gradientUnits="userSpaceOnUse">
<stop stop-color="#8B21CA"/>
<stop offset="0.3" stop-color="#F0A613"/>
<stop offset="0.67" stop-color="#FA4E0A"/>
<stop offset="1" stop-color="#29206F"/>
</linearGradient>
<linearGradient id="paint1_linear_1_10632" x1="21.4971" y1="23.5125" x2="21.4971" y2="45.2777" gradientUnits="userSpaceOnUse">
<stop stop-color="#00D059"/>
<stop offset="0.25" stop-color="#C4FFBA"/>
<stop offset="0.6" stop-color="#2BC48C"/>
<stop offset="1" stop-color="#27AE60"/>
</linearGradient>
</defs>
</svg>
