<svg width="124" height="282" viewBox="0 0 124 282" fill="none" xmlns="http://www.w3.org/2000/svg">
<path d="M29.75 250.125L8.5 237.375L29.75 224.625L51 237.375V260.75L29.75 273.5V250.125Z" stroke="#F0A613" stroke-width="2" stroke-linecap="round" stroke-linejoin="round"/>
<path d="M8.5 237.375V260.75L29.75 273.5M29.75 250.316L51 237.439M72.25 250.125L51 237.375M72.25 250.125V273.5M72.25 250.125L93.5 237.375M51 237.375L72.25 224.625M51 237.375V214M72.25 224.625L93.5 237.375M72.25 224.625V201.25M93.5 237.375V260.75L72.25 273.5M72.25 273.5L51 260.75M51 214L29.75 201.25L51 188.5L72.25 201.25M51 214L72.25 201.25M29.75 201.378V224.561" stroke="#F0A613" stroke-width="2" stroke-linecap="round" stroke-linejoin="round"/>
<path d="M51.75 215.125L30.5 202.375L51.75 189.625L73 202.375V225.75L51.75 238.5V215.125Z" stroke="#F0A613" stroke-width="2" stroke-linecap="round" stroke-linejoin="round"/>
<path d="M30.5 202.375V225.75L51.75 238.5M51.75 215.316L73 202.439M94.25 215.125L73 202.375M94.25 215.125V238.5M94.25 215.125L115.5 202.375M73 202.375L94.25 189.625M73 202.375V179M94.25 189.625L115.5 202.375M94.25 189.625V166.25M115.5 202.375V225.75L94.25 238.5M94.25 238.5L73 225.75M73 179L51.75 166.25L73 153.5L94.25 166.25M73 179L94.25 166.25M51.75 166.378V189.561" stroke="#F0A613" stroke-width="2" stroke-linecap="round" stroke-linejoin="round"/>
<path d="M29.75 180.125L8.5 167.375L29.75 154.625L51 167.375V190.75L29.75 203.5V180.125Z" stroke="#F0A613" stroke-width="2" stroke-linecap="round" stroke-linejoin="round"/>
<path d="M8.5 167.375V190.75L29.75 203.5M29.75 180.316L51 167.439M72.25 180.125L51 167.375M72.25 180.125V203.5M72.25 180.125L93.5 167.375M51 167.375L72.25 154.625M51 167.375V144M72.25 154.625L93.5 167.375M72.25 154.625V131.25M93.5 167.375V190.75L72.25 203.5M72.25 203.5L51 190.75M51 144L29.75 131.25L51 118.5L72.25 131.25M51 144L72.25 131.25M29.75 131.378V154.561" stroke="#F0A613" stroke-width="2" stroke-linecap="round" stroke-linejoin="round"/>
<path d="M51.75 143.125L30.5 130.375L51.75 117.625L73 130.375V153.75L51.75 166.5V143.125Z" stroke="#F0A613" stroke-width="2" stroke-linecap="round" stroke-linejoin="round"/>
<path d="M30.5 130.375V153.75L51.75 166.5M51.75 143.316L73 130.439M94.25 143.125L73 130.375M94.25 143.125V166.5M94.25 143.125L115.5 130.375M73 130.375L94.25 117.625M73 130.375V107M94.25 117.625L115.5 130.375M94.25 117.625V94.25M115.5 130.375V153.75L94.25 166.5M94.25 166.5L73 153.75M73 107L51.75 94.25L73 81.5L94.25 94.25M73 107L94.25 94.25M51.75 94.3775V117.561" stroke="#F0A613" stroke-width="2" stroke-linecap="round" stroke-linejoin="round"/>
<path d="M29.75 106.125L8.5 93.375L29.75 80.625L51 93.375V116.75L29.75 129.5V106.125Z" stroke="#F0A613" stroke-width="2" stroke-linecap="round" stroke-linejoin="round"/>
<path d="M8.5 93.375V116.75L29.75 129.5M29.75 106.316L51 93.4388M72.25 106.125L51 93.375M72.25 106.125V129.5M72.25 106.125L93.5 93.375M51 93.375L72.25 80.625M51 93.375V70M72.25 80.625L93.5 93.375M72.25 80.625V57.25M93.5 93.375V116.75L72.25 129.5M72.25 129.5L51 116.75M51 70L29.75 57.25L51 44.5L72.25 57.25M51 70L72.25 57.25M29.75 57.3775V80.5612" stroke="#F0A613" stroke-width="2" stroke-linecap="round" stroke-linejoin="round"/>
<path d="M51.75 70.125L30.5 57.375L51.75 44.625L73 57.375V80.75L51.75 93.5V70.125Z" stroke="#F0A613" stroke-width="2" stroke-linecap="round" stroke-linejoin="round"/>
<path d="M30.5 57.375V80.75L51.75 93.5M51.75 70.3163L73 57.4388M94.25 70.125L73 57.375M94.25 70.125V93.5M94.25 70.125L115.5 57.375M73 57.375L94.25 44.625M73 57.375V34M94.25 44.625L115.5 57.375M94.25 44.625V21.25M115.5 57.375V80.75L94.25 93.5M94.25 93.5L73 80.75M73 34L51.75 21.25L73 8.5L94.25 21.25M73 34L94.25 21.25M51.75 21.3775V44.5612" stroke="#F0A613" stroke-width="2" stroke-linecap="round" stroke-linejoin="round"/>
</svg>
