<svg width="60" height="60" viewBox="0 0 60 60" fill="none" xmlns="http://www.w3.org/2000/svg">
<path d="M60 29.97C60 13.425 46.56 0 30 0C13.44 0 0 13.425 0 29.97C0 39.0825 4.14 47.295 10.62 52.8075C10.68 52.8675 10.74 52.8675 10.74 52.9275C11.28 53.3475 11.82 53.7675 12.42 54.1875C12.72 54.3675 12.96 54.6037 13.26 54.8438C18.2198 58.2009 24.0709 59.9967 30.06 60C36.0491 59.9967 41.9002 58.2009 46.86 54.8438C47.16 54.6637 47.4 54.4275 47.7 54.2438C48.24 53.8275 48.84 53.4075 49.38 52.9875C49.44 52.9275 49.5 52.9275 49.5 52.8675C55.86 47.2913 60 39.0825 60 29.97ZM30 56.2238C24.36 56.2238 19.2 54.4237 14.94 51.4275C15 50.9475 15.12 50.4713 15.24 49.9913C15.5987 48.6908 16.123 47.4418 16.8 46.275C17.46 45.135 18.24 44.115 19.2 43.215C20.1 42.315 21.18 41.4788 22.26 40.8188C23.4 40.1588 24.6 39.6787 25.92 39.3187C27.2507 38.9623 28.6224 38.7821 30 38.7825C34.0903 38.7515 38.0307 40.3207 40.98 43.155C42.36 44.535 43.44 46.1538 44.22 48.0113C44.64 49.0913 44.94 50.23 45.12 51.4275C40.6919 54.5406 35.4129 56.2152 30 56.2238ZM20.82 28.4737C20.2924 27.263 20.0266 25.9544 20.04 24.6337C20.04 23.3175 20.28 21.9975 20.82 20.7975C21.36 19.5975 22.08 18.5213 22.98 17.6213C23.88 16.7213 24.96 16.005 26.16 15.465C27.36 14.925 28.68 14.685 30 14.685C31.38 14.685 32.64 14.925 33.84 15.465C35.04 16.005 36.12 16.725 37.02 17.6213C37.92 18.5213 38.64 19.6013 39.18 20.7975C39.72 21.9975 39.96 23.3175 39.96 24.6337C39.96 26.0137 39.72 27.2737 39.18 28.47C38.6618 29.6539 37.9296 30.732 37.02 31.65C36.1016 32.5582 35.0236 33.2892 33.84 33.8063C31.3602 34.8232 28.5798 34.8232 26.1 33.8063C24.9164 33.2892 23.8384 32.5582 22.92 31.65C22.0097 30.7449 21.2949 29.6663 20.82 28.4737ZM48.66 48.3713C48.66 48.2513 48.6 48.1913 48.6 48.0713C48.011 46.1936 47.1411 44.416 46.02 42.7988C44.898 41.1696 43.5202 39.7324 41.94 38.5425C40.7327 37.634 39.4239 36.8688 38.04 36.2625C38.6667 35.8433 39.2496 35.3621 39.78 34.8262C40.6745 33.9431 41.4601 32.9561 42.12 31.8863C43.4534 29.705 44.14 27.19 44.1 24.6337C44.1196 22.7418 43.7521 20.8659 43.02 19.1213C42.2981 17.4399 41.2592 15.9134 39.96 14.625C38.6596 13.3539 37.1335 12.3365 35.46 11.625C33.7128 10.8932 31.8342 10.5269 29.94 10.5487C28.0456 10.5281 26.167 10.8957 24.42 11.6287C22.7282 12.3316 21.1971 13.3715 19.92 14.685C18.6423 15.9786 17.624 17.5048 16.92 19.1812C16.1879 20.9259 15.8204 22.8018 15.84 24.6938C15.84 26.0138 16.02 27.2725 16.38 28.47C16.74 29.73 17.22 30.87 17.88 31.9463C18.48 33.0263 19.32 33.9863 20.22 34.8863C20.76 35.4263 21.36 35.905 22.02 36.3225C20.6299 36.9414 19.3202 37.7271 18.12 38.6625C16.56 39.8625 15.18 41.2987 14.04 42.8587C12.9085 44.4699 12.0379 46.2492 11.46 48.1312C11.4 48.2512 11.4 48.3713 11.4 48.4313C6.66 43.635 3.72 37.1625 3.72 29.97C3.72 15.525 15.54 3.71625 30 3.71625C44.46 3.71625 56.28 15.525 56.28 29.97C56.2721 36.8698 53.5324 43.4858 48.66 48.3713Z" fill="#29206F"/>
</svg>
