<svg width="24" height="24" viewBox="0 0 24 24" fill="none" xmlns="http://www.w3.org/2000/svg">
<path fill-rule="evenodd" clip-rule="evenodd" d="M11.9996 1.48438C11.3416 1.48438 10.7696 1.90538 9.62659 2.74838L7.90559 4.01737C7.72559 4.15037 7.63559 4.21637 7.53859 4.27237C7.44159 4.32837 7.33859 4.37237 7.13359 4.46237L5.17459 5.31837C3.87259 5.88837 3.22159 6.17237 2.89259 6.74137C2.56359 7.31038 2.64259 8.01737 2.80159 9.42938L3.03959 11.5544C3.06459 11.7764 3.07659 11.8874 3.07659 11.9994C3.07659 12.1114 3.06459 12.2224 3.03959 12.4444L2.80159 14.5694C2.64359 15.9814 2.56459 16.6874 2.89259 17.2574C3.22259 17.8274 3.87259 18.1114 5.17459 18.6804L7.13459 19.5364C7.33859 19.6264 7.44159 19.6704 7.53859 19.7264C7.63459 19.7824 7.72559 19.8484 7.90559 19.9814L9.62559 21.2504C10.7706 22.0934 11.3426 22.5144 11.9996 22.5144C12.6566 22.5144 13.2296 22.0934 14.3726 21.2504L16.0936 19.9814C16.2736 19.8484 16.3636 19.7824 16.4606 19.7264C16.5576 19.6704 16.6606 19.6264 16.8656 19.5364L18.8246 18.6804C20.1266 18.1104 20.7776 17.8264 21.1066 17.2574C21.4356 16.6884 21.3566 15.9814 21.1966 14.5694L20.9596 12.4444C20.9346 12.2224 20.9216 12.1114 20.9216 11.9994C20.9216 11.8874 20.9346 11.7764 20.9596 11.5544L21.1976 9.42938C21.3556 8.01737 21.4346 7.31138 21.1066 6.74137C20.7766 6.17137 20.1266 5.88737 18.8246 5.31837L16.8646 4.46237C16.7265 4.40661 16.5916 4.34318 16.4606 4.27237C16.3336 4.19428 16.2111 4.10915 16.0936 4.01737L14.3736 2.74838C13.2276 1.90538 12.6556 1.48438 11.9996 1.48438ZM11.9996 15.9994C13.0605 15.9994 14.0779 15.5779 14.828 14.8278C15.5782 14.0777 15.9996 13.0602 15.9996 11.9994C15.9996 10.9385 15.5782 9.92109 14.828 9.17095C14.0779 8.4208 13.0605 7.99937 11.9996 7.99937C10.9387 7.99937 9.92131 8.4208 9.17116 9.17095C8.42102 9.92109 7.99959 10.9385 7.99959 11.9994C7.99959 13.0602 8.42102 14.0777 9.17116 14.8278C9.92131 15.5779 10.9387 15.9994 11.9996 15.9994Z" fill="white"/>
</svg>
